<svg width="48" height="48" viewBox="0 0 48 48" fill="none" xmlns="http://www.w3.org/2000/svg">
<g id="ig">
<circle id="Ellipse 5" cx="23.5556" cy="23.5556" r="23.5556" fill="#7D4D2C"/>
<g id="Vector">
<path fill-rule="evenodd" clip-rule="evenodd" d="M17.6796 9.85838C19.1133 9.79238 19.5704 9.77771 23.2224 9.77771C26.8744 9.77771 27.3315 9.7936 28.764 9.85838C30.1964 9.92315 31.1742 10.1517 32.0297 10.4829C32.9256 10.8215 33.7384 11.3507 34.4106 12.0352C35.0951 12.7062 35.6231 13.5177 35.9604 14.4148C36.2928 15.2704 36.5202 16.2482 36.5862 17.6782C36.6522 19.1143 36.6668 19.5714 36.6668 23.2222C36.6668 26.8742 36.651 27.3313 36.5862 28.7649C36.5214 30.1949 36.2928 31.1727 35.9604 32.0283C35.6231 32.9255 35.0942 33.7384 34.4106 34.4104C33.7384 35.0948 32.9256 35.6228 32.0297 35.9602C31.1742 36.2926 30.1964 36.5199 28.7664 36.5859C27.3315 36.6519 26.8744 36.6666 23.2224 36.6666C19.5704 36.6666 19.1133 36.6507 17.6796 36.5859C16.2496 36.5212 15.2718 36.2926 14.4163 35.9602C13.5191 35.6228 12.7062 35.0939 12.0342 34.4104C11.3502 33.739 10.8209 32.9265 10.4832 32.0295C10.152 31.1739 9.92462 30.1962 9.85862 28.7662C9.79262 27.33 9.77795 26.8729 9.77795 23.2222C9.77795 19.5702 9.79384 19.113 9.85862 17.6806C9.9234 16.2482 10.152 15.2704 10.4832 14.4148C10.8214 13.5178 11.3511 12.7053 12.0354 12.0339C12.7064 11.3501 13.5185 10.8208 14.4151 10.4829C15.2706 10.1517 16.2484 9.92438 17.6784 9.85838H17.6796ZM28.6552 12.2784C27.2374 12.2136 26.8121 12.2002 23.2224 12.2002C19.6327 12.2002 19.2074 12.2136 17.7896 12.2784C16.4782 12.3383 15.7668 12.557 15.2926 12.7416C14.6656 12.986 14.2171 13.2757 13.7465 13.7463C13.3005 14.1802 12.9572 14.7085 12.7418 15.2924C12.5573 15.7666 12.3385 16.4779 12.2786 17.7894C12.2138 19.2072 12.2004 19.6325 12.2004 23.2222C12.2004 26.8118 12.2138 27.2372 12.2786 28.6549C12.3385 29.9664 12.5573 30.6777 12.7418 31.1519C12.957 31.7349 13.3004 32.2642 13.7465 32.698C14.1804 33.1442 14.7096 33.4876 15.2926 33.7027C15.7668 33.8873 16.4782 34.106 17.7896 34.1659C19.2074 34.2307 19.6315 34.2442 23.2224 34.2442C26.8133 34.2442 27.2374 34.2307 28.6552 34.1659C29.9666 34.106 30.678 33.8873 31.1522 33.7027C31.7792 33.4583 32.2277 33.1686 32.6983 32.698C33.1444 32.2642 33.4878 31.7349 33.703 31.1519C33.8875 30.6777 34.1063 29.9664 34.1662 28.6549C34.231 27.2372 34.2444 26.8118 34.2444 23.2222C34.2444 19.6325 34.231 19.2072 34.1662 17.7894C34.1063 16.4779 33.8875 15.7666 33.703 15.2924C33.4585 14.6654 33.1688 14.2168 32.6983 13.7463C32.2643 13.3002 31.736 12.957 31.1522 12.7416C30.678 12.557 29.9666 12.3383 28.6552 12.2784ZM21.5052 27.3667C22.4642 27.7659 23.5321 27.8198 24.5264 27.5191C25.5208 27.2185 26.3799 26.5819 26.957 25.7182C27.5342 24.8545 27.7936 23.8172 27.6909 22.7835C27.5882 21.7498 27.1299 20.7838 26.3941 20.0505C25.925 19.5817 25.3579 19.2228 24.7335 18.9996C24.1091 18.7763 23.4429 18.6943 22.783 18.7594C22.1231 18.8244 21.4858 19.035 20.917 19.376C20.3483 19.7169 19.8622 20.1797 19.4938 20.7311C19.1253 21.2824 18.8837 21.9086 18.7864 22.5646C18.689 23.2205 18.7383 23.8898 18.9306 24.5245C19.123 25.1591 19.4537 25.7431 19.8988 26.2346C20.344 26.7261 20.8926 27.1127 21.5052 27.3667Z" fill="white"/>
<path fill-rule="evenodd" clip-rule="evenodd" d="M18.336 18.3357C18.9777 17.694 19.7395 17.185 20.5779 16.8377C21.4163 16.4904 22.3149 16.3117 23.2224 16.3117C24.1299 16.3117 25.0285 16.4904 25.8669 16.8377C26.7053 17.185 27.4671 17.694 28.1088 18.3357C28.7505 18.9774 29.2596 19.7392 29.6068 20.5776C29.9541 21.416 30.1329 22.3147 30.1329 23.2222C30.1329 24.1297 29.9541 25.0283 29.6068 25.8667C29.2596 26.7051 28.7505 27.4669 28.1088 28.1086C26.8129 29.4046 25.0552 30.1326 23.2224 30.1326C21.3896 30.1326 19.6319 29.4046 18.336 28.1086C17.04 26.8126 16.3119 25.0549 16.3119 23.2222C16.3119 21.3894 17.04 19.6317 18.336 18.3357ZM31.6655 17.3408C31.8245 17.1908 31.9518 17.0104 32.0399 16.8103C32.1279 16.6103 32.1749 16.3945 32.1781 16.176C32.1813 15.9574 32.1406 15.7404 32.0584 15.5378C31.9763 15.3352 31.8543 15.1512 31.6997 14.9966C31.5451 14.8421 31.3611 14.7201 31.1585 14.6379C30.956 14.5557 30.739 14.515 30.5204 14.5182C30.3018 14.5214 30.0861 14.5684 29.886 14.6564C29.6859 14.7445 29.5055 14.8718 29.3555 15.0308C29.0638 15.3401 28.9041 15.7509 28.9103 16.176C28.9165 16.6011 29.0881 17.007 29.3887 17.3076C29.6893 17.6083 30.0953 17.7799 30.5204 17.7861C30.9455 17.7923 31.3563 17.6326 31.6655 17.3408Z" fill="white"/>
</g>
<circle id="Ellipse 9" cx="23.1113" cy="23.1111" r="4.44444" fill="#7D4D2C"/>
</g>
</svg>
